<svg data-v-0dd9719b="" version="1.0" xmlns="http://www.w3.org/2000/svg" xmlns:xlink="http://www.w3.org/1999/xlink" width="100%" height="100%" viewBox="0 0 340.000000 250.000000" preserveAspectRatio="xMidYMid meet" color-interpolation-filters="sRGB" style="margin: auto;"> <rect data-v-0dd9719b="" x="0" y="0" width="100%" height="100%" fill="#fff" fill-opacity="1" class="background"></rect> <rect data-v-0dd9719b="" x="0" y="0" width="100%" height="100%" fill="url(#watermark)" fill-opacity="1" class="watermarklayer"></rect> <g data-v-0dd9719b="" fill="#184c18" class="icon-text-wrapper icon-svg-group iconsvg" transform="translate(49.30805206298828,97.48374938964844)"><g class="iconsvg-imagesvg" transform="translate(0,10.02894401550293)"><g><rect fill="#184c18" fill-opacity="0" stroke-width="2" x="0" y="0" width="60" height="34.974614259150236" class="image-rect"></rect> <svg x="0" y="0" width="60" height="34.974614259150236" filtersec="colorsb7525696186" class="image-svg-svg primary" style="overflow: visible;"><svg xmlns="http://www.w3.org/2000/svg" viewBox="0.039759352803230286 0 164.4502410888672 95.86000061035156"><g><g><path fill="#184c18" d="M157.93 1.49l5.21 10.6-13.41-.01-5.21-10.6 13.41.01zM149.49 12.21l-27.45 54.6-5.24-10.47 27.5-54.7 5.19 10.57z"></path><path d="M122.09 67.25a.12.12 0 0 0 .05 0l27.56-54.83h13.42L122 94.43l-46.42-93H89l27.51 55 5.38 10.77a.12.12 0 0 0 .11.07h.06z" fill="#ff6045"></path><path d="M80.74 12.31l41.07 82.29h-10.47l-29-58.08-6.84-13.73a.12.12 0 0 0 0-.05h-.07v.05l-22.11 44-5.22-10.5L70 12.3a.13.13 0 0 0 .12-.08l5.27-10.61 5.21 10.62a.14.14 0 0 0 .14.08z" fill="#184c18"></path><path d="M53.17 67.2l22.12-44 6.7 13.43-28.86 57.75-46.42-93h13.42L28.53 18 47.6 56.29a.17.17 0 0 0 .06.12L53 67.13a.16.16 0 0 0 .13.08z" fill="#ff6045"></path><path fill="#184c18" d="M6.49 1.56L52.9 94.55H42.44L1.29 12.11l5.2-10.55z"></path><path d="M164.49 12.31V11.76l-.16-.18-5.16-10.5V.91l-.2-.2a1.14 1.14 0 0 0-.31-.31l-.39-.19h-14.13a.65.65 0 0 0-.2.05 1.14 1.14 0 0 0-.64.54l-.11.22-26.55 52.78L90.13.8a1 1 0 0 0-.34-.41l-.23-.21L75.79.16h-.56l-.9.71-26.58 52.85L21.25.8l-.47-.53h-.05l-.29-.15H6.68L6.39 0l-.14.13h-.13l-.67.64L.2 11.45v.08a1.05 1.05 0 0 0-.16.58v.3L41.22 95l.09.17a1.1 1.1 0 0 0 .59.55l.2.09h11l1.06-.64.08-.09v-.16l28-55.82 28 56.12c.12.25.79.64.79.64h11.22l.91-.83 41-81.74zm-7.18-9.82l4.22 8.6h-11.18l-4.22-8.6zM88.4 2.44l32.51 65v.77h.72a1.23 1.23 0 0 0 .39.07h.45l.43-.34.07-.13 27.35-54.42h11.19L122 92.2 77.24 2.43zm60 9.76L122 64.58l-4.12-8.24 26.41-52.45zm-77.63.8a.91.91 0 0 0 .29-.36l4.33-8.8 4.36 8.87A1 1 0 0 0 80 13l40.22 80.6H112L76.39 22.34l-.2-.34-.35-.28-.42-.09-.27-.12-.22.21h-.63L53.14 64.53 49 56.27zM43.06 93.55L2.41 12.11l4.08-8.29 44.79 89.73zM8.33 2.38h11.18l8.09 15.95a.43.43 0 0 0 0 .07l19.09 38.3a1.09 1.09 0 0 0 .08.15l5.38 10.79a1.16 1.16 0 0 0 .52.46l.36.36.45-.28h.15v-.06h.57v-.76l21.12-42L81 36.59 53.13 92.14z" fill="#fff"></path></g></g></svg></svg> <!----></g></g> <g transform="translate(67,0)"><g data-gra="path-name" fill-rule="" class="tp-name iconsvg-namesvg" transform="translate(0,0)"><g transform="scale(1)"><g><path d="M40.78-7.47Q42.54-7.47 42.54-5.58L42.54-5.58Q42.54-1.85 41.13 1.36L41.13 1.36Q39.99 4 38.19 4L38.19 4Q36.04 4 33.13-0.09L33.13-0.09Q30.32-4.09 28.61-9.54L28.61-9.54Q26.98-14.72 26.46-21.49L26.46-21.49 18.15-21.49 18.15-15.25 23.6-15.25Q25.53-15.25 25.53-13.62L25.53-13.62Q25.53-12 23.6-12L23.6-12 18.15-12 18.15-3.38Q21.49-4.09 22.59-4.35L22.59-4.35 25.31-4.97Q25.75-5.05 25.93-5.05L25.93-5.05Q26.63-5.05 27-4.57 27.38-4.09 27.38-3.12L27.38-3.12Q27.38-1.89 24.92-1.19L24.92-1.19Q21.18-0.09 17.09 0.7L17.09 0.7 14.94 1.1Q9.14 2.24 6.2 2.77L6.2 2.77Q4.79 3.03 4.31 3.03L4.31 3.03Q3.38 3.03 2.92 2.57 2.46 2.11 2.37 1.1L2.37 1.1Q2.33 0.35 2.7-0.15 3.08-0.66 3.82-0.79L3.82-0.79 6.55-1.27 6.55-17.05Q6.55-18.15 6.97-18.63 7.38-19.12 8.26-19.12L8.26-19.12Q9.14-19.12 9.54-18.63 9.93-18.15 9.93-17.05L9.93-17.05 9.93-1.85 11.38-2.11 14.63-2.72 14.63-21.49 4.7-21.49Q2.68-21.49 2.68-23.16L2.68-23.16Q2.68-24.87 4.7-24.87L4.7-24.87 26.24-24.87Q26.06-27.2 26.06-33.49L26.06-33.49Q26.06-35.77 27.95-35.77L27.95-35.77Q29.84-35.77 29.84-33.22L29.84-33.22 29.84-26.32Q29.84-25.84 29.93-24.87L29.93-24.87 40.03-24.87Q42.14-24.87 42.14-23.16L42.14-23.16Q42.14-21.49 40.03-21.49L40.03-21.49 30.1-21.49Q31.03-10.2 35.33-3.65L35.33-3.65Q37.05-1.1 37.71-1.1L37.71-1.1Q38.14-1.1 38.47-2.29 38.8-3.47 39.02-5.93L39.02-5.93Q39.16-7.47 40.78-7.47L40.78-7.47ZM35.6-28.83L34.06-30.81Q33.31-31.82 33.31-32.21L33.31-32.21Q33.31-33.71 35.07-33.71L35.07-33.71Q36.04-33.71 37.88-31.73L37.88-31.73Q39.68-29.79 39.68-28.96L39.68-28.96Q39.68-27.33 37.79-27.33L37.79-27.33Q36.69-27.33 35.6-28.83L35.6-28.83ZM8.04-29.71Q7.03-29.71 6.55-30.1 6.06-30.5 6.06-31.33L6.06-31.33Q6.06-32.96 8.04-32.96L8.04-32.96 21.75-32.96Q23.77-32.96 23.77-31.33L23.77-31.33Q23.77-30.5 23.29-30.1 22.81-29.71 21.75-29.71L21.75-29.71 8.04-29.71ZM85.65 0.66Q86.44 0.79 86.95 1.27 87.45 1.76 87.45 2.46L87.45 2.46Q87.45 3.3 86.92 3.78 86.4 4.26 85.52 4.26L85.52 4.26Q84.24 4.26 80.73 3.12L80.73 3.12Q77.21 1.98 74.9 0.53 72.6-0.92 71.06-2.99L71.06-2.99Q69.35 0.09 65.9 1.87 62.45 3.65 56.95 4.22L56.95 4.22Q56.07 4.31 55.57 3.85 55.06 3.38 55.06 2.46L55.06 2.46Q55.06 1.1 57.3 0.75L57.3 0.75Q61.92 0.13 64.42-0.92 66.93-1.98 67.94-3.65L67.94-3.65 58.27-3.65Q56.51-3.65 56.51-5.1L56.51-5.1Q56.51-6.64 58.27-6.64L58.27-6.64 68.95-6.64Q69.35-7.87 69.39-8.7L69.39-8.7 59.9-8.7Q58.14-8.7 58.14-10.2L58.14-10.2Q58.14-11.69 59.9-11.69L59.9-11.69 69.57-11.69Q69.65-12.26 69.65-13.54L69.65-13.54 62.01-13.54Q60.21-13.54 59.39-14.35 58.58-15.16 58.58-16.92L58.58-16.92 58.58-18.63Q58.58-20.43 59.41-21.23 60.25-22.02 62.01-22.02L62.01-22.02 69.65-22.02 69.65-23.6 67.24-23.6Q65.61-23.6 64.75-24.43 63.9-25.27 63.9-26.89L63.9-26.89 63.9-29.09 59.33-29.09Q57.7-29.09 57.7-30.54L57.7-30.54Q57.7-31.99 59.33-31.99L59.33-31.99 63.9-31.99 63.9-34.15Q63.9-34.89 64.31-35.35 64.73-35.82 65.48-35.82L65.48-35.82Q66.27-35.82 66.69-35.38 67.1-34.94 67.1-34.15L67.1-34.15 67.1-31.99 75.19-31.99 75.19-34.1Q75.19-35.82 76.82-35.82L76.82-35.82Q78.44-35.82 78.44-34.1L78.44-34.1 78.44-31.99 84.02-31.99Q85.87-31.99 85.87-30.54L85.87-30.54Q85.87-29.09 84.02-29.09L84.02-29.09 78.44-29.09 78.44-26.89Q78.44-25.27 77.59-24.43 76.73-23.6 75.15-23.6L75.15-23.6 72.95-23.6 72.95-22.02 80.68-22.02Q82.49-22.02 83.28-21.2 84.07-20.39 84.07-18.63L84.07-18.63 84.07-16.92Q84.07-15.12 83.25-14.33 82.44-13.54 80.68-13.54L80.68-13.54 72.91-13.54 72.86-11.69 83.23-11.69Q85.03-11.69 85.03-10.2L85.03-10.2Q85.03-8.7 83.23-8.7L83.23-8.7 72.69-8.7 72.55-7.69Q72.47-6.99 72.38-6.64L72.38-6.64 84.9-6.64Q86.7-6.64 86.7-5.1L86.7-5.1Q86.7-3.65 84.9-3.65L84.9-3.65 73.74-3.65Q75.15-2.11 78.07-1.1 80.99-0.09 85.65 0.66L85.65 0.66ZM51.06-30.89Q49.22-31.82 49.22-32.92L49.22-32.92Q49.22-34.67 51.02-34.67L51.02-34.67Q51.42-34.67 52.51-34.26 53.61-33.84 54.84-33.22L54.84-33.22Q55.9-32.7 56.47-32.06 57.04-31.42 57.04-30.81L57.04-30.81Q57.04-30.01 56.6-29.53 56.16-29.05 55.55-29.05L55.55-29.05Q55.33-29.05 54.73-29.22 54.14-29.4 53.39-29.75L53.39-29.75 51.06-30.89ZM67.1-27.69Q67.1-26.59 68.12-26.59L68.12-26.59 74.14-26.59Q75.19-26.59 75.19-27.69L75.19-27.69 75.19-29.09 67.1-29.09 67.1-27.69ZM49.88-19.82Q47.99-20.61 47.99-21.84L47.99-21.84Q47.99-23.73 49.92-23.73L49.92-23.73Q50.54-23.73 53.44-22.41L53.44-22.41Q54.62-21.88 55.22-21.31 55.81-20.74 55.81-20.08L55.81-20.08Q55.81-18.11 53.96-18.11L53.96-18.11Q53.7-18.11 52.69-18.57 51.68-19.03 51.46-19.12L51.46-19.12 49.88-19.82ZM69.65-16.44L69.65-19.12 62.93-19.12Q61.88-19.12 61.88-17.75L61.88-17.75Q61.88-17.01 62.12-16.72 62.36-16.44 62.93-16.44L62.93-16.44 69.65-16.44ZM79.67-19.12L72.95-19.12 72.95-16.44 79.67-16.44Q80.29-16.44 80.53-16.74 80.77-17.05 80.77-17.75L80.77-17.75Q80.77-18.46 80.51-18.79 80.24-19.12 79.67-19.12L79.67-19.12ZM54.27-12Q56.07-12 56.07-10.37L56.07-10.37Q56.07-9.98 55.48-8.13 54.89-6.28 54.01-3.69L54.01-3.69Q51.81 2.72 51.06 3.3L51.06 3.3Q50.54 3.69 50.01 3.69L50.01 3.69Q48.03 3.69 48.03 1.8L48.03 1.8Q48.03 1.54 48.47 0.53L48.47 0.53 48.96-0.75 49.7-2.68Q51.81-8.35 52.34-10.06L52.34-10.06Q52.65-11.03 53.11-11.51 53.57-12 54.27-12L54.27-12ZM131.04 3.96Q129.81 3.96 129.07 0.79L129.07 0.79 125.55 1.58Q121.77 2.42 119.38 2.88 116.98 3.34 116.54 3.34L116.54 3.34Q114.92 3.34 114.92 1.63L114.92 1.63Q114.92 0.62 116.02 0.13L116.02 0.13 121.68-0.79 121.68-9.23 119.09-9.23Q117.11-9.23 116.24-10.06 115.36-10.9 115.49-12.79L115.49-12.79 115.49-24.17Q115.49-26.1 116.35-26.96 117.2-27.82 119.09-27.73L119.09-27.73 121.68-27.73 121.68-34.06Q121.68-35.73 123.22-35.73L123.22-35.73Q124.72-35.73 124.72-34.06L124.72-34.06 124.72-27.73 127.53-27.73Q129.46-27.73 130.34-26.87 131.22-26.02 131.13-24.17L131.13-24.17 131.13-12.79Q131.13-10.85 130.25-9.98 129.38-9.1 127.53-9.23L127.53-9.23 124.72-9.23 124.72-1.27 128.41-2.02 128.23-2.86 127.62-5.27 127.4-6.42Q127.27-7.03 127.66-7.34 128.06-7.65 128.76-7.65L128.76-7.65Q129.64-7.65 130.08-6.72L130.08-6.72Q130.56-5.67 132.19 0.62L132.19 0.62 132.58 2.42Q132.58 3.96 131.04 3.96L131.04 3.96ZM94.39-31.03Q92.72-31.03 92.72-32.56L92.72-32.56Q92.72-34.06 94.39-34.06L94.39-34.06 113.38-34.06Q115.09-34.06 115.09-32.56L115.09-32.56Q115.09-31.03 113.38-31.03L113.38-31.03 94.39-31.03ZM98-19.73Q94.83-19.73 94.83-22.85L94.83-22.85 94.83-25.62Q94.83-28.7 98-28.7L98-28.7 109.34-28.7Q110.87-28.7 111.69-27.91 112.5-27.11 112.5-25.62L112.5-25.62 112.5-22.85Q112.5-19.73 109.34-19.73L109.34-19.73 98-19.73ZM108.28-22.54Q109.34-22.54 109.34-23.64L109.34-23.64 109.34-24.79Q109.34-25.88 108.28-25.88L108.28-25.88 99.05-25.88Q98-25.88 98-24.79L98-24.79 98-23.64Q98-23.16 98.28-22.85 98.57-22.54 99.05-22.54L99.05-22.54 108.28-22.54ZM121.68-12.26L121.68-24.65 119.84-24.65Q118.48-24.65 118.43-23.29L118.43-23.29 118.43-13.67Q118.43-13.01 118.81-12.66 119.18-12.3 119.84-12.26L119.84-12.26 121.68-12.26ZM126.74-12.26Q128.01-12.26 128.1-13.67L128.1-13.67 128.1-23.29Q128.1-24.57 126.74-24.65L126.74-24.65 124.72-24.65 124.72-12.26 126.74-12.26ZM95.01 4.26Q93.43 4.26 93.43 2.59L93.43 2.59 93.43-13.67Q93.25-15.73 94.24-16.7 95.23-17.67 97.29-17.49L97.29-17.49 110.17-17.49Q112.28-17.49 113.25-16.57 114.21-15.64 114.08-13.67L114.08-13.67 114.08 0.13Q114.08 2.29 113.09 3.27 112.1 4.26 109.95 4.13L109.95 4.13 108.68 4.13Q106.92 4.13 106.92 2.55L106.92 2.55Q106.92 0.92 108.63 0.92L108.63 0.92 109.69 0.92Q110.83 0.92 110.92-0.48L110.92-0.48 110.92-8.13 108.19-8.13Q106.04-8.13 105.47-8.83L105.47-8.83Q104.99-9.45 104.99-10.55L104.99-10.55 104.99-14.46 102.48-14.46Q102.39-10.9 101.25-9.14L101.25-9.14Q99.98-7.21 98.26-7.21L98.26-7.21Q96.9-7.21 96.9-8.61L96.9-8.61Q96.9-9.45 98.39-10.24L98.39-10.24Q99.71-10.99 99.8-14.46L99.8-14.46 98.09-14.46Q97.34-14.46 96.99-14.13 96.64-13.8 96.59-13.05L96.59-13.05 96.59 2.59Q96.59 4.26 95.01 4.26L95.01 4.26ZM110.92-10.77L110.92-13.05Q110.92-14.46 109.42-14.46L109.42-14.46 107.53-14.46 107.53-11.65Q107.53-10.85 108.59-10.77L108.59-10.77 110.92-10.77ZM103.54 3.3Q102.04 3.3 102.04 1.67L102.04 1.67 102.04-3.52 99.01-3.52Q97.43-3.52 97.43-4.88L97.43-4.88Q97.43-6.28 99.01-6.28L99.01-6.28 108.41-6.28Q109.91-6.28 109.91-4.88L109.91-4.88Q109.91-3.52 108.41-3.52L108.41-3.52 105.03-3.52 105.03 1.67Q105.03 3.3 103.54 3.3L103.54 3.3ZM139.61-15.6Q138.74-15.51 138.23-15.89 137.72-16.26 137.72-17.23L137.72-17.23Q137.72-18.37 139-18.59L139-18.59 141.11-18.9 141.11-31.38 139.04-31.38Q138.16-31.38 137.77-31.75 137.37-32.12 137.37-32.87L137.37-32.87Q137.37-34.32 139.04-34.32L139.04-34.32 157.32-34.32Q158.95-34.32 158.95-32.87L158.95-32.87Q158.95-31.38 157.32-31.38L157.32-31.38 156.18-31.38 156.18-16.74Q156.18-15.91 155.79-15.51 155.39-15.12 154.56-15.12L154.56-15.12Q153.72-15.12 153.33-15.51 152.93-15.91 152.93-16.74L152.93-16.74 152.93-17.93 149.06-17.09 139.61-15.6ZM160.97-30.37Q159.26-30.37 159.26-31.82L159.26-31.82Q159.26-33.31 160.97-33.31L160.97-33.31 172.75-33.31Q175.78-33.31 175.78-31.25L175.78-31.25Q175.78-30.15 174.11-27.69L174.11-27.69Q172.27-25 170.73-23.51L170.73-23.51 170.77-23.42Q176.75-20.08 176.75-18.63L176.75-18.63Q176.75-17.71 176.31-17.27 175.87-16.83 174.9-16.83L174.9-16.83Q174.29-16.83 172.71-18.15L172.71-18.15Q170.82-19.69 168.27-21.23L168.27-21.23 168.18-21.23Q165.37-18.98 162.86-17.8L162.86-17.8Q159.92-16.39 158.86-16.39L158.86-16.39Q157.41-16.39 157.41-17.97L157.41-17.97Q157.41-19.07 158.95-19.51L158.95-19.51Q161.98-20.39 165.59-22.85L165.59-22.85 160.44-25.53Q159.3-26.15 159.3-26.94L159.3-26.94Q159.3-28.34 160.8-28.34L160.8-28.34Q161.46-28.34 163.39-27.25L163.39-27.25 167.83-25 168.05-24.92Q171.87-28.56 171.87-29.93L171.87-29.93Q171.87-30.37 171.21-30.37L171.21-30.37 160.97-30.37ZM152.93-31.38L144.36-31.38 144.36-29.36 152.93-29.36 152.93-31.38ZM152.93-26.76L144.36-26.76 144.36-24.79 152.93-24.79 152.93-26.76ZM152.93-22.19L144.36-22.19 144.36-19.25 152.93-20.39 152.93-22.19ZM161.46-11.69L159.3-11.56 159.3 2.15Q159.3 3.16 158.84 3.69 158.38 4.22 157.54 4.22L157.54 4.22Q155.79 4.22 155.79 2.15L155.79 2.15 155.79-11.38Q149.19-11.16 142.6-11.16L142.6-11.16Q141.68-11.16 141.24-11.54 140.8-11.91 140.8-12.7L140.8-12.7Q140.8-14.15 142.65-14.15L142.65-14.15 145.63-14.19 148.36-14.24Q152.53-14.24 158.95-14.59L158.95-14.59Q163.04-14.81 165.61-15.07 168.18-15.34 171.74-15.86L171.74-15.86Q171.91-15.91 172.27-15.91L172.27-15.91Q173.85-15.91 173.85-14.28L173.85-14.28Q173.85-13.62 173.43-13.25 173.01-12.88 172.05-12.7L172.05-12.7Q168.4-12.13 161.46-11.69L161.46-11.69ZM175.43-0.75Q175.83-0.53 176.07-0.11 176.31 0.31 176.31 0.75L176.31 0.75Q176.31 1.36 175.91 1.8L175.91 1.8Q175.43 2.42 174.59 2.42L174.59 2.42Q173.8 2.42 173.01 1.85L173.01 1.85Q169.85-0.44 167.43-3.6L167.43-3.6 167.12-3.16Q164.84-0.04 162.86 1.67L162.86 1.67Q162.16 2.29 161.37 2.29L161.37 2.29Q160.8 2.29 160.36 1.85L160.36 1.85Q159.87 1.27 159.87 0.79L159.87 0.79Q159.87 0.22 160.4-0.31L160.4-0.31Q163.04-2.94 164.22-4.53L164.22-4.53Q165.81-6.99 167.04-10.02L167.04-10.02Q167.26-10.5 167.65-10.79 168.05-11.07 168.57-11.07L168.57-11.07Q168.97-11.07 169.37-10.94L169.37-10.94Q170.38-10.59 170.38-9.49L170.38-9.49Q170.38-9.14 170.24-8.75L170.24-8.75Q169.72-7.34 168.88-5.89L168.88-5.89Q170.2-4.48 171.96-3.12 173.72-1.76 175.43-0.75L175.43-0.75ZM147.92-6.06Q151.96-3.65 153.68-1.85L153.68-1.85Q154.34-1.19 154.34-0.31L154.34-0.31Q154.34 0.35 153.85 0.83L153.85 0.83Q153.33 1.36 152.67 1.36L152.67 1.36Q151.79 1.36 151.08 0.57L151.08 0.57Q148.75-2.02 146.51-3.87L146.51-3.87 145.9-2.9Q144.1-0.09 141.9 2.11L141.9 2.11Q141.2 2.81 140.32 2.81L140.32 2.81Q139.61 2.81 139.17 2.33L139.17 2.33Q138.65 1.76 138.65 1.14L138.65 1.14Q138.65 0.53 139.22-0.04L139.22-0.04Q140.93-1.76 142.91-4.26L142.91-4.26Q144.89-7.12 145.81-9.49L145.81-9.49Q146.03-9.98 146.43-10.26 146.82-10.55 147.35-10.55L147.35-10.55Q147.74-10.55 148.14-10.42L148.14-10.42Q149.15-10.06 149.15-8.96L149.15-8.96Q149.15-8.61 149.02-8.22L149.02-8.22Q148.71-7.38 147.92-6.06L147.92-6.06Z" transform="translate(-2.3660974502563477, 35.81999969482422)"></path></g> <!----> <!----> <!----> <!----> <!----> <!----> <!----></g></g> <g data-gra="path-slogan" fill-rule="" class="tp-slogan iconsvg-slogansvg" fill="#184c18" transform="translate(5,46.08000183105469)"><rect x="0" height="1" y="3.9750003814697266" width="30.231948852539062"></rect> <rect height="1" y="3.9750003814697266" width="30.231948852539062" x="134.15194702148438"></rect> <g transform="translate(33.23194885253906,0)"><g transform="scale(1)"><path d="M5.67-7.13L5.63-7.13L3.66 0L2.44 0L0.19-8.58L1.41-8.58L3.05-1.59L3.09-1.59L5.02-8.58L6.28-8.58L8.20-1.59L8.25-1.59L9.84-8.58L11.11-8.58L8.86 0L7.64 0L5.67-7.13ZM17.86-3.19L17.86-8.58L19.03-8.58L19.03-3.05Q18.89 0.05 15.52 0.14L15.52 0.14Q12.38 0.05 12.23-2.86L12.23-2.86L12.23-8.58L13.41-8.58L13.41-3.19Q13.45-0.84 15.56-0.80L15.56-0.80Q17.86-0.84 17.86-3.19L17.86-3.19ZM21.98-5.06L26.48-5.06L26.48-8.58L27.66-8.58L27.66 0L26.48 0L26.48-3.98L21.98-3.98L21.98 0L20.81 0L20.81-8.58L21.98-8.58L21.98-5.06ZM35.11 0L34.27-2.48L30.80-2.48L29.91 0L28.73 0L31.97-8.58L33.28-8.58L36.38 0L35.11 0ZM32.53-7.31L31.17-3.52L33.84-3.52L32.58-7.31L32.53-7.31ZM38.81-8.58L43.13-1.64L43.13-8.58L44.25-8.58L44.25 0L42.94 0L38.58-6.94L38.53-6.94L38.53 0L37.41 0L37.41-8.58L38.81-8.58ZM53.48-3.70L50.67-3.70L50.67 0L49.50 0L49.50-8.58L53.48-8.58Q56.34-8.58 56.34-6.28L56.34-6.28Q56.34-4.88 55.13-4.22L55.13-4.22Q56.16-3.94 56.16-2.58L56.16-2.58L56.25-1.03Q56.20-0.38 56.67-0.19L56.67-0.19L56.67 0L55.22 0Q55.08-0.61 55.03-2.16L55.03-2.16Q55.08-3.70 53.48-3.70L53.48-3.70ZM53.58-7.64L50.67-7.64L50.67-4.69L53.39-4.69Q55.13-4.69 55.13-6.19L55.13-6.19Q55.13-7.64 53.58-7.64L53.58-7.64ZM64.78-4.27L64.78-4.27Q64.59-7.64 61.78-7.83L61.78-7.83Q58.92-7.69 58.78-4.27L58.78-4.27Q58.92-0.94 61.78-0.80L61.78-0.80Q64.59-0.98 64.78-4.27ZM65.95-4.27L65.95-4.27Q65.67 0 61.78 0.14L61.78 0.14Q57.84 0 57.56-4.27L57.56-4.27Q57.80-8.72 61.78-8.81L61.78-8.81Q65.67-8.67 65.95-4.27ZM68.72-8.58L73.03-1.64L73.03-8.58L74.16-8.58L74.16 0L72.84 0L68.48-6.94L68.44-6.94L68.44 0L67.31 0L67.31-8.58L68.72-8.58ZM82.36-3.61L79.73-3.61L79.73-4.59L83.48-4.59L83.48 0L82.73 0L82.45-1.08Q81.47 0.09 79.64 0.14L79.64 0.14Q77.91 0.14 76.97-0.75L76.97-0.75Q75.56-2.06 75.61-4.36L75.61-4.36Q75.94-8.63 79.69-8.81L79.69-8.81Q82.88-8.63 83.34-6L83.34-6L82.22-6Q81.75-7.78 79.64-7.83L79.64-7.83Q76.97-7.64 76.83-4.31L76.83-4.31Q76.83-0.75 79.69-0.75L79.69-0.75Q80.72-0.75 81.47-1.31L81.47-1.31Q82.41-2.06 82.36-3.61L82.36-3.61ZM84.56-1.92L84.56-2.77L85.64-2.77L85.64-2.16Q85.64-0.75 86.95-0.75L86.95-0.75Q88.31-0.75 88.31-2.25L88.31-2.25L88.31-8.58L89.48-8.58L89.48-2.30Q89.44 0.09 87 0.14L87 0.14Q84.70 0.09 84.56-1.92L84.56-1.92ZM96.94-3.19L96.94-8.58L98.11-8.58L98.11-3.05Q97.97 0.05 94.59 0.14L94.59 0.14Q91.45 0.05 91.31-2.86L91.31-2.86L91.31-8.58L92.48-8.58L92.48-3.19Q92.53-0.84 94.64-0.80L94.64-0.80Q96.94-0.84 96.94-3.19L96.94-3.19Z" transform="translate(-0.1875, 8.8125)"></path></g></g></g></g></g><defs v-gra="od"></defs></svg>